<svg width="61" height="39" viewBox="0 0 61 39" fill="none" xmlns="http://www.w3.org/2000/svg">
<path d="M56.9543 37.1529H3.38257C2.23682 37.1529 1.29858 36.2149 1.29858 35.0683V3.3831C1.29858 2.2367 2.23682 1.29869 3.38257 1.29869H56.9543C58.1 1.29869 59.0383 2.2367 59.0383 3.3831V35.0683C59.0383 36.2149 58.1 37.1529 56.9543 37.1529Z" fill="url(#paint0_linear_51_1474)"/>
<path d="M40.7571 37.1521H3.38314C2.23663 37.1521 1.29858 36.2141 1.29858 35.0675V3.38235C1.29858 2.23585 2.23663 1.2978 3.38314 1.2978H12.0299C14.1061 6.11937 16.9411 11.485 20.7996 16.9465C25.6524 23.8172 32.1291 30.8463 40.7571 37.1521Z" fill="url(#paint1_linear_51_1474)"/>
<path d="M1.29785 23.719V3.38228C1.29785 2.2358 2.2361 1.29776 3.38237 1.29776H52.6677C43.5676 6.46319 32.5401 12.1519 20.7993 16.9463C14.4417 19.5417 7.87616 21.8744 1.29785 23.719Z" fill="url(#paint2_linear_51_1474)"/>
<path d="M14.7822 17.5489V20.2899H10.8133V30.5601H7.78857V7.94017H15.2867V10.6809H10.8133V17.5489H14.7822Z" fill="white"/>
<path d="M24.5167 14.0206V12.0357C24.5167 11.1329 24.0768 10.6809 23.1951 10.6809H22.7219C21.861 10.6809 21.4295 11.1329 21.4295 12.0357V15.7847C21.4295 16.205 21.5129 16.4887 21.6817 16.6355C21.8506 16.7826 22.1236 16.9715 22.5009 17.2022L25.3672 18.7461C25.9988 19.1034 26.4449 19.3814 26.7076 19.5809C26.9681 19.7806 27.1745 20.022 27.3204 20.3055C27.4684 20.589 27.5414 21.13 27.5414 21.9279V26.748C27.5414 29.2897 26.324 30.5601 23.8872 30.5601H22.0277C19.6138 30.5601 18.4048 29.174 18.4048 26.4016V25.2676H21.4295V26.496C21.4295 27.3782 21.8818 27.8193 22.7844 27.8193H23.3202C24.1185 27.8193 24.5167 27.3782 24.5167 26.496V22.6527C24.5167 22.2327 24.4333 21.9492 24.2645 21.802C24.0977 21.6553 23.8246 21.4662 23.4452 21.2348L20.579 19.6283C19.9494 19.2926 19.4929 19.0089 19.2094 18.7775C18.9259 18.5468 18.7196 18.2474 18.5945 17.8797C18.4694 17.5126 18.4048 17.0347 18.4048 16.4462V11.8153C18.4048 9.23175 19.6138 7.94017 22.0277 7.94017H23.9184C26.3344 7.94017 27.5414 9.23175 27.5414 11.8153V14.0206H24.5167Z" fill="white"/>
<path d="M40.4908 25.2676V26.7166C40.4908 29.2793 39.2817 30.5601 36.8678 30.5601H34.9146C32.4986 30.5601 31.2896 29.2793 31.2896 26.7166V11.7837C31.2896 9.22154 32.4986 7.94017 34.9146 7.94017H36.8678C39.2817 7.94017 40.4908 9.22154 40.4908 11.7837V14.3354H37.4661V12.0042C37.4661 11.122 37.0137 10.6809 36.1111 10.6809H35.5128C34.7145 10.6809 34.3142 11.122 34.3142 12.0042V26.496C34.3142 27.3782 34.7145 27.8193 35.5128 27.8193H36.2675C37.0658 27.8193 37.4661 27.3782 37.4661 26.496V25.2676H40.4908Z" fill="white"/>
<path d="M53.2826 25.2651V26.714C53.2826 29.2769 52.0727 30.5577 49.657 30.5577H47.7049C45.2913 30.5577 44.0813 29.2769 44.0813 26.714V11.7812C44.0813 9.21895 45.2913 7.93752 47.7049 7.93752H49.657C52.0727 7.93752 53.2826 9.21895 53.2826 11.7812V14.3327H50.2588V12.0017C50.2588 11.1196 49.8058 10.6784 48.9021 10.6784H48.3045C47.5071 10.6784 47.1052 11.1196 47.1052 12.0017V26.4935C47.1052 27.3758 47.5071 27.8168 48.3045 27.8168H49.0594C49.8569 27.8168 50.2588 27.3758 50.2588 26.4935V25.2651H53.2826Z" fill="white"/>
<defs>
<linearGradient id="paint0_linear_51_1474" x1="65.1432" y1="-7.73139" x2="22.9417" y2="29.4664" gradientUnits="userSpaceOnUse">
<stop stop-color="#4CB9E9"/>
<stop offset="0.277542" stop-color="#47A2DF"/>
<stop offset="0.561441" stop-color="#3C71C1"/>
<stop offset="1" stop-color="#2B3896"/>
</linearGradient>
<linearGradient id="paint1_linear_51_1474" x1="11.7568" y1="-0.405904" x2="25.2015" y2="52.7475" gradientUnits="userSpaceOnUse">
<stop stop-color="#4CB9E9"/>
<stop offset="0.277542" stop-color="#47A2DF"/>
<stop offset="0.561441" stop-color="#3C71C1"/>
<stop offset="1" stop-color="#2B3896"/>
</linearGradient>
<linearGradient id="paint2_linear_51_1474" x1="-6.36942" y1="-46.7426" x2="53.8067" y2="38.9049" gradientUnits="userSpaceOnUse">
<stop stop-color="#4CB9E9"/>
<stop offset="0.277542" stop-color="#47A2DF"/>
<stop offset="0.561441" stop-color="#3C71C1"/>
<stop offset="1" stop-color="#2B3896"/>
</linearGradient>
</defs>
</svg>
