<svg width="696" height="254" viewBox="0 0 696 254" fill="none" xmlns="http://www.w3.org/2000/svg">
<path d="M608.043 -161.294C569.954 -240.8 496.133 -301.946 402.892 -320.384C261.93 -348.258 124.892 -268.962 75.8518 -138.858L0.6844 -153.723L104.818 1.74859L260.285 -102.387L173.209 -119.606C210.313 -196.826 296.099 -242.326 384.036 -224.936C445.96 -212.691 495.029 -172.016 520.364 -119.157C529.009 -101.119 534.869 -81.6597 537.553 -61.4321L585.409 -93.4883C578.303 -122.427 565.905 -149.122 549.357 -172.581C510.268 -234.282 445.555 -277.815 370.929 -288.773C462.478 -283.804 542.403 -229.377 582.233 -150.377C583.155 -148.548 584.054 -146.707 584.933 -144.854C592.688 -128.485 598.732 -111.106 602.84 -92.9464L636.311 -42.9719C635.404 -84.6988 625.47 -124.921 608.043 -161.294ZM695.044 85.821L590.916 -69.65L435.447 34.4851L518.462 50.9023C480.48 125.999 395.965 169.875 309.355 152.748C228.165 136.695 169.093 71.7605 156.626 -5.42469L111.805 24.5997C120.711 59.2753 137.39 91.3385 160.301 118.366C186.483 156.679 223.066 187.969 267.077 207.527C180.876 181.69 117.168 112.424 95.5758 29.0501L57.1516 -28.3186C60.615 104.106 155.076 221.038 290.539 247.827C430.09 275.422 565.802 197.992 616.094 70.2086L695.044 85.821Z" fill="white" fill-opacity="0.1"/>
</svg>
