<svg width="160" height="54" viewBox="0 0 160 54" fill="none" xmlns="http://www.w3.org/2000/svg">
<rect width="160" height="54" fill="#DFDFDF"/>
<g clip-path="url(#clip0_0_1)">
<rect width="1920" height="1080" transform="translate(-1383 -242)" fill="url(#paint0_linear_0_1)"/>
<ellipse cx="275" cy="286.5" rx="954.5" ry="743" transform="rotate(-90 275 286.5)" fill="white"/>
<path d="M65.7313 0H69.7489C72.5169 0 74.9863 1.73893 75.9192 4.3449L87.5157 36.7398L99.4418 4.03903C100.326 1.61373 102.633 0 105.214 0H109.985L92.0711 45.4729C91.3374 47.3353 89.5393 48.5595 87.5376 48.5595C85.5141 48.5595 83.7011 47.3088 82.9826 45.4171L65.7313 0ZM60.9866 4.74471C60.9866 2.12428 63.1109 0 65.7313 0H69.7489L71.342 14.7713V38.2526V53.8848H60.9866V4.74471ZM105.214 0H109.985C112.209 0 114.011 1.80251 114.011 4.02601V53.8848H103.621V38.2526V16.155L105.214 0ZM149.372 39.4411C149.372 38.5046 149.234 37.6643 148.957 36.9198C148.703 36.1513 148.218 35.4549 147.502 34.8307C146.786 34.1822 145.782 33.546 144.489 32.9216C143.196 32.2973 141.522 31.6489 139.467 30.9767C137.181 30.2082 135.011 29.3436 132.956 28.3832C130.924 27.4227 129.123 26.3061 127.553 25.0334C126.006 23.7368 124.782 22.236 123.882 20.531C123.004 18.8261 122.566 16.845 122.566 14.5877C122.566 12.4026 123.027 10.4215 123.951 8.64467C124.875 6.84363 126.168 5.30687 127.83 4.0342C129.492 2.73746 131.455 1.74093 133.718 1.04455C136.004 0.348184 138.509 0 141.233 0C144.951 0 148.195 0.696366 150.965 2.08912C153.736 3.48186 155.884 5.39097 157.407 7.81626C158.954 10.2415 159.728 13.015 159.728 16.1367H149.407C149.407 14.5997 149.095 13.2551 148.472 12.1025C147.872 10.9259 146.948 10.0014 145.701 9.32905C144.477 8.65666 142.93 8.32046 141.06 8.32046C139.259 8.32046 137.758 8.60852 136.558 9.18483C135.357 9.73716 134.457 10.4936 133.856 11.4541C133.256 12.3906 132.956 13.4471 132.956 14.6239C132.956 15.5122 133.164 16.3167 133.579 17.0372C134.018 17.7575 134.664 18.4299 135.519 19.0542C136.373 19.6784 137.424 20.2669 138.671 20.8191C139.917 21.3714 141.36 21.9118 143 22.4399C145.747 23.3045 148.16 24.2769 150.238 25.3576C152.339 26.4381 154.094 27.6509 155.502 28.9955C156.911 30.3402 157.973 31.865 158.689 33.57C159.405 35.2749 159.763 37.208 159.763 39.369C159.763 41.6503 159.335 43.6914 158.481 45.4923C157.627 47.2933 156.391 48.8181 154.775 50.0668C153.159 51.3155 151.231 52.264 148.991 52.9124C146.752 53.5606 144.247 53.8848 141.476 53.8848C138.982 53.8848 136.523 53.5486 134.099 52.8764C131.674 52.1799 129.469 51.1353 127.484 49.7426C125.521 48.3498 123.951 46.573 122.773 44.4118C121.596 42.2506 121.007 39.6932 121.007 36.7398H131.432C131.432 38.3726 131.674 39.7533 132.159 40.8818C132.644 42.0105 133.325 42.923 134.203 43.6193C135.103 44.3157 136.165 44.8201 137.389 45.1321C138.636 45.4443 139.998 45.6003 141.476 45.6003C143.277 45.6003 144.754 45.3363 145.909 44.8081C147.087 44.2797 147.952 43.5474 148.506 42.6107C149.084 41.6743 149.372 40.6177 149.372 39.4411Z" fill="url(#paint1_linear_0_1)"/>
<path d="M25.7898 0.000346046C17.906 0.0416523 10.1404 3.8173 5.08515 10.9239C-2.55734 21.6676 -1.38574 36.3426 7.25763 45.6388L3.18214 51.3678L19.7323 48.7939L17.2571 31.5819L12.536 38.2185C7.71171 32.0286 7.31302 23.0066 12.0807 16.3043C15.4381 11.5847 20.6024 9.07618 25.8443 9.04775C27.6331 9.03809 29.4303 9.31904 31.1682 9.89766L30.4062 4.59939C27.795 4.04622 25.1628 4.02727 22.6336 4.48586C16.1511 5.31923 10.1577 9.02936 6.41874 14.8682C10.3204 7.36837 17.7762 2.81231 25.6856 2.60448C25.8688 2.5997 26.0519 2.59731 26.2354 2.59708C27.8552 2.59595 29.4912 2.77873 31.1164 3.15538L36.4362 2.32812C33.0281 0.745309 29.3965 -0.0186626 25.7898 0.000346046ZM49.0938 2.5107L32.5439 5.08417L35.019 22.2964L39.5199 15.9693C44.139 22.1487 44.4551 30.9992 39.7594 37.6003C35.3576 43.7885 27.8496 46.1734 21.133 44.1527L21.8468 49.115C24.9906 49.7449 28.2204 49.6174 31.2813 48.7657C35.3797 48.0876 39.3079 46.2559 42.5716 43.3331C37.1873 49.5535 29.1519 52.156 21.5861 50.6565L15.4792 51.6062C26.3174 56.5802 39.382 53.2872 46.7266 42.9627C54.2926 32.3266 53.2212 17.8373 44.8133 8.52803L49.0938 2.5107Z" fill="url(#paint2_linear_0_1)"/>
</g>
<defs>
<linearGradient id="paint0_linear_0_1" x1="1.33009e-06" y1="485" x2="1932.5" y2="509" gradientUnits="userSpaceOnUse">
<stop stop-color="#2575FC"/>
<stop offset="1" stop-color="#6A11CB"/>
</linearGradient>
<linearGradient id="paint1_linear_0_1" x1="110.375" y1="0" x2="110.375" y2="53.8848" gradientUnits="userSpaceOnUse">
<stop stop-color="#2575FC"/>
<stop offset="1" stop-color="#1511CB"/>
</linearGradient>
<linearGradient id="paint2_linear_0_1" x1="25.9062" y1="0" x2="25.9062" y2="53.8856" gradientUnits="userSpaceOnUse">
<stop stop-color="#2575FC"/>
<stop offset="1" stop-color="#1511CB"/>
</linearGradient>
<clipPath id="clip0_0_1">
<rect width="1920" height="1080" fill="white" transform="translate(-1383 -242)"/>
</clipPath>
</defs>
</svg>
